# xmcd
#
# Track frame offsets: 
#        150
#        19552
#        39294
#        58051
#        76858
#        97602
#        100672
#        120260
#        140886
#        161890
#
# Disc length: 2470 seconds
#
# Revision: 2
# Processed by: cddbd v1.5.2PL0 Copyright (c) Steve Scherf et al.
# Submitted via: ExactAudioCopy v0.95b4
#
DISCID=6e09a40a
DTITLE=Streetwise - Does Dre
DYEAR=2006
DGENRE=Jazz
TTITLE0=California Love
TTITLE1=Gin and Juice
TTITLE2=My Name Is
TTITLE3=Let Me Blow Ya Mind
TTITLE4=Nuthin' But a "G" Thang
TTITLE5=Not Today
TTITLE6=Misterioso
TTITLE7=XXPlosive
TTITLE8=How We Do
TTITLE9=Forgot About Dre
EXTD=YEAR: 2006
EXTT0=
EXTT1=
EXTT2=
EXTT3=
EXTT4=
EXTT5=
EXTT6=
EXTT7=
EXTT8=
EXTT9=
PLAYORDER=
